<svg width="22" height="22" viewBox="0 0 22 22" fill="none" xmlns="http://www.w3.org/2000/svg">
<path d="M5.4502 8.61621V7.08496C5.4502 4.10559 7.64032 1.61621 10.7002 1.61621C13.7601 1.61621 15.9502 4.10559 15.9502 7.08496V8.61621H16.3877C16.9679 8.61621 17.5243 8.84668 17.9345 9.25692C18.3447 9.66715 18.5752 10.2235 18.5752 10.8037V17.8037C18.5752 18.3839 18.3447 18.9403 17.9345 19.3505C17.5243 19.7607 16.9679 19.9912 16.3877 19.9912H5.0127C4.43253 19.9912 3.87614 19.7607 3.4659 19.3505C3.05566 18.9403 2.8252 18.3839 2.8252 17.8037V10.8037C2.8252 10.2235 3.05566 9.66715 3.4659 9.25692C3.87614 8.84668 4.43253 8.61621 5.0127 8.61621H5.4502ZM4.1377 10.8037V17.8037C4.1377 18.0358 4.22988 18.2583 4.39398 18.4224C4.55807 18.5865 4.78063 18.6787 5.0127 18.6787H16.3877C16.6198 18.6787 16.8423 18.5865 17.0064 18.4224C17.1705 18.2583 17.2627 18.0358 17.2627 17.8037V10.8037C17.2627 10.5716 17.1705 10.3491 17.0064 10.185C16.8423 10.0209 16.6198 9.92871 16.3877 9.92871H5.0127C4.78063 9.92871 4.55807 10.0209 4.39398 10.185C4.22988 10.3491 4.1377 10.5716 4.1377 10.8037ZM6.7627 7.08496V8.61621H14.6377V7.08496C14.6377 4.74871 12.9559 2.92871 10.7002 2.92871C8.44445 2.92871 6.7627 4.74871 6.7627 7.08496Z" fill="white"/>
</svg>
