<svg width="1728" height="1280" viewBox="0 0 1728 1280" fill="none" xmlns="http://www.w3.org/2000/svg">
<path opacity="0.0144928" d="M1645.23 1634.65C1654.29 1639.45 1665.43 1637.69 1672.55 1630.32L1898.88 1396.24C1903.1 1391.88 1905.42 1386.04 1905.35 1379.97L1899.73 913.909C1899.67 909.142 1898.14 904.511 1895.33 900.656L1655.19 570.549C1650.1 563.559 1641.53 560.011 1632.99 561.363L1352.54 605.782C1344 607.134 1336.94 613.159 1334.27 621.378L1207.88 1009.54C1206.41 1014.07 1206.37 1018.95 1207.79 1023.5L1346.47 1468.49C1348.28 1474.28 1352.29 1479.12 1357.65 1481.96L1645.23 1634.65Z" stroke="url(#paint0_linear_33_1463)" stroke-width="4"/>
<path opacity="0.0289855" d="M1594.08 1633.16C1602.86 1638.4 1614.04 1637.23 1621.53 1630.27L1858.45 1410.33C1862.9 1406.2 1865.53 1400.47 1865.78 1394.41L1884.61 932.976C1884.8 928.198 1883.5 923.478 1880.89 919.473L1659.81 580.496C1655.09 573.265 1646.73 569.284 1638.14 570.186L1357.43 599.69C1348.84 600.593 1341.49 606.227 1338.38 614.28L1192.6 991.815C1190.88 996.276 1190.59 1001.16 1191.78 1005.8L1306.13 1453.23C1307.63 1459.11 1311.4 1464.16 1316.61 1467.27L1594.08 1633.16Z" stroke="url(#paint1_linear_33_1463)" stroke-width="4"/>
<path opacity="0.0434783" d="M1543.32 1630.12C1551.8 1635.79 1562.99 1635.2 1570.83 1628.68L1817.47 1423.33C1822.14 1419.44 1825.09 1413.85 1825.65 1407.8L1868.43 952.271C1868.88 947.496 1867.82 942.7 1865.41 938.555L1663.66 591.788C1659.32 584.336 1651.18 579.935 1642.58 580.386L1362.39 595.07C1353.78 595.521 1346.15 600.749 1342.61 608.613L1178.21 974.569C1176.25 978.944 1175.7 983.824 1176.65 988.526L1266.8 1437.09C1268 1443.05 1271.51 1448.29 1276.56 1451.67L1543.32 1630.12Z" stroke="url(#paint2_linear_33_1463)" stroke-width="4"/>
<path opacity="0.057971" d="M1493.04 1625.56C1501.19 1631.64 1512.37 1631.64 1520.52 1625.56L1776.02 1435.22C1780.9 1431.58 1784.15 1426.15 1785.03 1420.13L1851.19 971.737C1851.89 966.977 1851.09 962.117 1848.88 957.841L1666.67 604.37C1662.72 596.717 1654.83 591.909 1646.22 591.909L1367.34 591.909C1358.73 591.909 1350.84 596.717 1346.9 604.37L1164.68 957.841C1162.48 962.117 1161.67 966.977 1162.37 971.737L1228.53 1420.13C1229.42 1426.15 1232.66 1431.58 1237.54 1435.22L1493.04 1625.56Z" stroke="url(#paint3_linear_33_1463)" stroke-width="4"/>
<path opacity="0.0724638" d="M1443.31 1619.54C1451.13 1626 1462.25 1626.58 1470.7 1620.97L1734.16 1445.99C1739.24 1442.62 1742.77 1437.36 1743.98 1431.39L1832.89 991.313C1833.84 986.582 1833.29 981.671 1831.3 977.274L1668.77 618.184C1665.22 610.351 1657.6 605.149 1649.02 604.699L1372.2 590.192C1363.62 589.742 1355.5 594.119 1351.15 601.538L1151.97 941.672C1149.53 945.837 1148.47 950.663 1148.92 955.468L1191.35 1402.42C1191.92 1408.49 1194.88 1414.09 1199.58 1417.97L1443.31 1619.54Z" stroke="url(#paint4_linear_33_1463)" stroke-width="4"/>
<path opacity="0.0869565" d="M1394.22 1612.08C1401.67 1618.91 1412.71 1620.07 1421.43 1614.94L1691.95 1455.63C1697.21 1452.53 1701.03 1447.47 1702.55 1441.55L1813.52 1010.94C1814.73 1006.25 1814.43 1001.3 1812.66 996.796L1669.9 633.169C1666.76 625.177 1659.43 619.597 1650.89 618.7L1376.9 589.902C1368.36 589.004 1360.03 592.938 1355.3 600.103L1140.05 926.102C1137.38 930.143 1136.06 934.922 1136.27 939.759L1155.29 1384.03C1155.55 1390.13 1158.22 1395.88 1162.73 1400.01L1394.22 1612.08Z" stroke="url(#paint5_linear_33_1463)" stroke-width="4"/>
<path opacity="0.101449" d="M1345.83 1603.24C1352.91 1610.42 1363.83 1612.15 1372.78 1607.51L1649.46 1464.13C1654.89 1461.32 1658.98 1456.45 1660.81 1450.62L1793.1 1030.56C1794.56 1025.93 1794.52 1020.96 1792.97 1016.35L1670.01 649.26C1667.29 641.13 1660.27 635.19 1651.8 633.848L1381.35 591.013C1372.88 589.672 1364.37 593.152 1359.26 600.043L1128.88 911.168C1125.99 915.071 1124.41 919.79 1124.37 924.647L1120.38 1365.02C1120.32 1371.14 1122.71 1377.03 1127 1381.38L1345.83 1603.24Z" stroke="url(#paint6_linear_33_1463)" stroke-width="4"/>
<path opacity="0.115942" d="M1298.2 1593.08C1304.89 1600.59 1315.68 1602.88 1324.84 1598.74L1606.74 1471.49C1612.33 1468.96 1616.67 1464.32 1618.82 1458.58L1771.63 1050.12C1773.34 1045.56 1773.55 1040.57 1772.24 1035.88L1669.04 666.391C1666.74 658.145 1660.05 651.861 1651.67 650.08L1385.48 593.5C1377.11 591.72 1368.44 594.738 1362.98 601.335L1118.42 896.903C1115.31 900.658 1113.48 905.302 1113.18 910.166L1086.65 1345.46C1086.28 1351.58 1088.36 1357.59 1092.43 1362.17L1298.2 1593.08Z" stroke="url(#paint7_linear_33_1463)" stroke-width="4"/>
<path opacity="0.130435" d="M1251.42 1581.65C1257.7 1589.46 1268.32 1592.3 1277.66 1588.68L1563.87 1477.7C1569.59 1475.48 1574.19 1471.06 1576.64 1465.44L1749.12 1069.56C1751.07 1065.08 1751.55 1060.09 1750.47 1055.32L1666.96 684.492C1665.08 676.152 1658.73 669.542 1650.47 667.329L1389.23 597.33C1380.97 595.118 1372.17 597.668 1366.37 603.951L1108.63 883.341C1105.32 886.935 1103.23 891.492 1102.68 896.35L1054.12 1325.43C1053.43 1331.53 1055.2 1337.65 1059.05 1342.43L1251.42 1581.65Z" stroke="url(#paint8_linear_33_1463)" stroke-width="4"/>
<path opacity="0.144928" d="M1205.54 1569C1211.4 1577.09 1221.81 1580.47 1231.31 1577.37L1520.89 1482.76C1526.74 1480.85 1531.57 1476.69 1534.32 1471.19L1725.58 1088.82C1727.78 1084.44 1728.51 1079.46 1727.68 1074.63L1663.7 703.493C1662.25 695.081 1656.26 688.164 1648.14 685.526L1392.52 602.471C1384.41 599.833 1375.49 601.908 1369.38 607.862L1099.47 870.511C1095.95 873.933 1093.63 878.389 1092.82 883.228L1022.81 1304.99C1021.8 1311.05 1023.26 1317.27 1026.87 1322.24L1205.54 1569Z" stroke="url(#paint9_linear_33_1463)" stroke-width="4"/>
<path opacity="0.15942" d="M1160.61 1555.2C1166.04 1563.55 1176.22 1567.46 1185.84 1564.88L1477.89 1486.69C1483.83 1485.1 1488.89 1481.19 1491.93 1475.84L1701.03 1107.86C1703.47 1103.58 1704.46 1098.63 1703.87 1093.74L1659.24 723.32C1658.22 714.858 1652.6 707.653 1644.65 704.599L1395.3 608.882C1387.34 605.828 1378.34 607.424 1371.92 613.03L1090.89 858.441C1087.19 861.679 1084.62 866.021 1083.56 870.829L992.721 1284.21C991.4 1290.22 992.544 1296.51 995.898 1301.68L1160.61 1555.2Z" stroke="url(#paint10_linear_33_1463)" stroke-width="4"/>
<path opacity="0.173913" d="M1116.69 1540.31C1121.67 1548.9 1131.61 1553.32 1141.32 1551.27L1434.9 1489.5C1440.94 1488.23 1446.21 1484.59 1449.53 1479.4L1675.5 1126.6C1678.16 1122.44 1679.42 1117.54 1679.07 1112.61L1653.53 743.898C1652.95 735.408 1647.72 727.937 1639.94 724.475L1397.48 616.524C1389.71 613.062 1380.66 614.176 1373.95 619.42L1082.86 847.155C1078.97 850.199 1076.16 854.415 1074.85 859.178L963.874 1263.17C962.241 1269.11 963.064 1275.47 966.158 1280.8L1116.69 1540.31Z" stroke="url(#paint11_linear_33_1463)" stroke-width="4"/>
<path opacity="0.188406" d="M1073.84 1524.4C1078.36 1533.2 1088.02 1538.12 1097.8 1536.61L1392 1491.19C1398.11 1490.24 1403.58 1486.89 1407.18 1481.87L1648.99 1145.01C1651.88 1140.98 1653.4 1136.13 1653.3 1131.18L1646.56 765.15C1646.4 756.655 1641.57 748.938 1634 745.081L1399.02 625.35C1391.45 621.493 1382.37 622.123 1375.4 626.99L1075.32 836.677C1071.25 839.516 1068.22 843.592 1066.66 848.298L936.271 1241.93C934.329 1247.79 934.826 1254.19 937.652 1259.68L1073.84 1524.4Z" stroke="url(#paint12_linear_33_1463)" stroke-width="4"/>
<path opacity="0.202899" d="M1032.09 1507.54C1036.15 1516.52 1045.5 1521.92 1055.32 1520.95L1349.25 1491.78C1355.4 1491.17 1361.05 1488.1 1364.92 1483.27L1621.55 1163.03C1624.66 1159.15 1626.43 1154.37 1626.59 1149.39L1638.29 787C1638.56 778.522 1634.14 770.581 1626.8 766.34L1399.86 635.315C1392.51 631.073 1383.42 631.22 1376.22 635.696L1068.23 827.024C1064 829.65 1060.74 833.574 1058.93 838.209L909.911 1220.57C907.664 1226.34 907.835 1232.76 910.384 1238.4L1032.09 1507.54Z" stroke="url(#paint13_linear_33_1463)" stroke-width="4"/>
<path opacity="0.217391" d="M991.487 1489.79C995.081 1498.95 1004.1 1504.8 1013.92 1504.36L1306.69 1491.29C1312.88 1491.01 1318.7 1488.25 1322.82 1483.62L1593.19 1180.62C1596.51 1176.9 1598.53 1172.19 1598.95 1167.21L1628.69 809.37C1629.39 800.93 1625.4 792.788 1618.3 788.175L1399.93 646.366C1392.83 641.754 1383.77 641.418 1376.34 645.492L1061.54 818.216C1057.16 820.618 1053.68 824.379 1051.63 828.931L884.792 1199.16C882.245 1204.81 882.087 1211.25 884.353 1217.02L991.487 1489.79Z" stroke="url(#paint14_linear_33_1463)" stroke-width="4"/>
<path opacity="0.231884" d="M952.07 1471.24C955.189 1480.53 963.852 1486.83 973.652 1486.92L1264.39 1489.73C1270.59 1489.79 1276.56 1487.34 1280.94 1482.94L1563.94 1197.72C1567.47 1194.17 1569.74 1189.55 1570.41 1184.59L1617.77 832.18C1618.89 823.801 1615.33 815.479 1608.49 810.51L1399.2 658.453C1392.36 653.483 1383.35 652.667 1375.72 656.327L1055.2 810.266C1050.68 812.435 1047 816.021 1044.7 820.477L860.905 1177.77C858.065 1183.29 857.577 1189.72 859.553 1195.61L952.07 1471.24Z" stroke="url(#paint15_linear_33_1463)" stroke-width="4"/>
<path opacity="0.246377" d="M913.872 1451.96C916.509 1461.36 924.799 1468.07 934.546 1468.7L1222.39 1487.15C1228.6 1487.55 1234.7 1485.41 1239.31 1481.24L1533.84 1214.3C1537.57 1210.92 1540.09 1206.42 1541.01 1201.47L1605.49 855.352C1607.04 847.055 1603.91 838.577 1597.35 833.266L1397.61 671.519C1391.05 666.207 1382.11 664.915 1374.32 668.152L1049.17 803.185C1044.52 805.115 1040.64 808.514 1038.11 812.862L838.241 1156.46C835.114 1161.83 834.297 1168.25 835.977 1174.24L913.872 1451.96Z" stroke="url(#paint16_linear_33_1463)" stroke-width="4"/>
<path opacity="0.26087" d="M876.919 1432.01C879.072 1441.5 886.967 1448.61 896.632 1449.76L1180.76 1483.55C1186.94 1484.29 1193.16 1482.49 1198 1478.55L1502.93 1230.3C1506.85 1227.12 1509.6 1222.73 1510.78 1217.82L1591.86 878.807C1593.82 870.613 1591.14 862.003 1584.88 856.365L1395.12 685.507C1388.86 679.869 1380.02 678.106 1372.07 680.912L1043.39 796.984C1038.63 798.666 1034.56 801.867 1031.8 806.095L816.784 1135.31C813.377 1140.52 812.232 1146.9 813.61 1152.97L876.919 1432.01Z" stroke="url(#paint17_linear_33_1463)" stroke-width="4"/>
<path opacity="0.275362" d="M841.235 1411.48C842.902 1421.04 850.384 1428.52 859.938 1430.19L1139.53 1478.98C1145.68 1480.05 1152 1478.58 1157.04 1474.9L1471.24 1245.7C1475.33 1242.71 1478.32 1238.45 1479.75 1233.59L1576.87 902.466C1579.24 894.395 1577.01 885.676 1571.06 879.729L1391.69 700.357C1385.74 694.41 1377.02 692.184 1368.95 694.551L1037.83 791.669C1032.97 793.095 1028.71 796.089 1025.72 800.184L796.515 1114.38C792.837 1119.42 791.366 1125.74 792.439 1131.89L841.235 1411.48Z" stroke="url(#paint18_linear_33_1463)" stroke-width="4"/>
<path opacity="0.289855" d="M806.839 1390.45C808.02 1400.04 815.07 1407.87 824.485 1410.05L1098.77 1473.46C1104.86 1474.87 1111.26 1473.74 1116.5 1470.33L1438.8 1260.44C1443.07 1257.66 1446.29 1253.55 1447.97 1248.74L1560.52 926.25C1563.29 918.324 1561.52 909.52 1555.9 903.281L1387.28 716.011C1381.66 709.772 1373.09 707.089 1364.92 709.012L1032.43 787.243C1027.47 788.408 1023.05 791.184 1019.84 795.134L777.413 1093.73C773.472 1098.59 771.677 1104.83 772.441 1111.04L806.839 1390.45Z" stroke="url(#paint19_linear_33_1463)" stroke-width="4"/>
<path opacity="0.304348" d="M773.746 1368.98C774.441 1378.59 781.044 1386.74 790.293 1389.42L1058.5 1467.03C1064.52 1468.77 1070.99 1467.98 1076.41 1464.85L1405.67 1274.49C1410.09 1271.94 1413.54 1267.98 1415.46 1263.25L1542.83 950.082C1545.98 942.32 1544.67 933.455 1539.4 926.943L1381.86 732.403C1376.59 725.891 1368.19 722.762 1359.94 724.236L1027.14 783.708C1022.11 784.606 1017.52 787.154 1014.1 790.949L759.451 1073.44C755.258 1078.09 753.143 1084.25 753.595 1090.5L773.746 1368.98Z" stroke="url(#paint20_linear_33_1463)" stroke-width="4"/>
<path opacity="0.318841" d="M741.966 1347.17C742.177 1356.76 748.318 1365.21 757.373 1368.37L1018.79 1459.72C1024.71 1461.79 1031.22 1461.35 1036.81 1458.5L1371.88 1287.83C1376.45 1285.5 1380.11 1281.71 1382.28 1277.06L1523.79 973.886C1527.33 966.307 1526.47 957.405 1521.56 950.639L1375.4 749.473C1370.48 742.706 1362.28 739.142 1353.98 740.164L1021.91 781.062C1016.82 781.689 1012.09 784 1008.46 787.628L742.6 1053.55C738.164 1057.99 735.733 1064.05 735.871 1070.32L741.966 1347.17Z" stroke="url(#paint21_linear_33_1463)" stroke-width="4"/>
<path opacity="0.333333" d="M711.505 1325.07C711.235 1334.63 716.901 1343.35 725.736 1346.99L979.659 1451.57C985.471 1453.97 992.01 1453.88 997.755 1451.33L1337.47 1300.41C1342.18 1298.32 1346.05 1294.71 1348.46 1290.16L1503.43 997.585C1507.34 990.208 1506.94 981.294 1502.39 974.293L1367.87 767.154C1363.33 760.153 1355.35 756.165 1347.02 756.734L1016.71 779.302C1011.57 779.653 1006.69 781.719 1002.87 785.169L726.829 1034.14C722.161 1038.35 719.42 1044.28 719.243 1050.57L711.505 1325.07Z" stroke="url(#paint22_linear_33_1463)" stroke-width="4"/>
<path opacity="0.347826" d="M682.362 1302.78C681.617 1312.27 686.795 1321.24 695.386 1325.34L941.155 1442.63C946.839 1445.34 953.386 1445.6 959.269 1443.36L1302.5 1312.22C1307.33 1310.37 1311.4 1306.95 1314.05 1302.51L1481.76 1021.11C1486.02 1013.95 1486.09 1005.05 1481.92 997.832L1359.26 785.381C1355.1 778.166 1347.35 773.768 1339.02 773.883L1011.47 778.421C1006.3 778.492 1001.3 780.305 997.284 783.567L712.101 1015.25C707.213 1019.22 704.167 1025.02 703.674 1031.3L682.362 1302.78Z" stroke="url(#paint23_linear_33_1463)" stroke-width="4"/>
<path opacity="0.362319" d="M654.536 1280.37C653.322 1289.77 658.002 1298.96 666.323 1303.5L903.312 1432.93C908.85 1435.95 915.387 1436.57 921.392 1434.63L1267.01 1323.22C1271.96 1321.63 1276.21 1318.41 1279.09 1314.08L1458.81 1044.38C1463.42 1037.46 1463.93 1028.59 1460.16 1021.18L1349.54 804.089C1345.77 796.681 1338.29 791.887 1329.98 791.549L1006.16 778.41C1000.96 778.199 995.856 779.752 991.66 782.815L698.377 996.941C693.281 1000.66 689.937 1006.31 689.129 1012.57L654.536 1280.37Z" stroke="url(#paint24_linear_33_1463)" stroke-width="4"/>
<path opacity="0.376812" d="M628.019 1257.91C626.341 1267.2 630.515 1276.58 638.543 1281.55L866.163 1422.51C871.538 1425.84 878.046 1426.81 884.157 1425.2L1231.05 1333.39C1236.09 1332.06 1240.53 1329.05 1243.64 1324.86L1434.6 1067.33C1439.54 1060.67 1440.51 1051.86 1437.13 1044.28L1338.71 823.211C1335.33 815.632 1328.14 810.457 1319.88 809.67L1000.72 779.258C995.528 778.763 990.32 780.049 985.953 782.904L685.617 979.267C680.326 982.727 676.692 988.211 675.569 994.433L628.019 1257.91Z" stroke="url(#paint25_linear_33_1463)" stroke-width="4"/>
<path opacity="0.391304" d="M602.798 1235.48C600.667 1244.64 604.327 1254.17 612.04 1259.55L829.74 1411.43C834.935 1415.06 841.394 1416.38 847.595 1415.09L1194.66 1342.72C1199.79 1341.65 1204.4 1338.86 1207.73 1334.81L1409.16 1089.89C1414.42 1083.5 1415.84 1074.77 1412.87 1067.04L1326.75 842.682C1323.78 834.952 1316.89 829.414 1308.7 828.181L995.123 780.952C989.941 780.172 984.648 781.184 980.121 783.822L673.777 962.276C668.304 965.464 664.388 970.768 662.952 976.937L602.798 1235.48Z" stroke="url(#paint26_linear_33_1463)" stroke-width="4"/>
<path opacity="0.405797" d="M578.859 1213.14C576.283 1222.15 579.424 1231.81 586.8 1237.58L794.068 1399.73C799.067 1403.64 805.459 1405.31 811.732 1404.35L1157.9 1351.18C1163.1 1350.38 1167.88 1347.82 1171.42 1343.93L1382.53 1112C1388.09 1105.89 1389.95 1097.27 1387.4 1089.41L1313.65 862.435C1311.1 854.578 1304.52 848.693 1296.43 847.019L989.316 783.476C984.161 782.409 978.797 783.143 974.118 785.555L662.809 946.013C657.168 948.921 652.979 954.03 651.233 960.132L578.859 1213.14Z" stroke="url(#paint27_linear_33_1463)" stroke-width="4"/>
<path opacity="0.42029" d="M556.18 1190.98C553.171 1199.8 555.789 1209.57 562.808 1215.71L759.174 1387.46C763.96 1391.64 770.266 1393.66 776.594 1393.03L1120.82 1358.76C1126.08 1358.24 1131 1355.92 1134.75 1352.19L1354.75 1133.59C1360.6 1127.78 1362.89 1119.29 1360.76 1111.33L1299.42 882.404C1297.28 874.442 1291.05 868.23 1283.08 866.122L983.259 786.811C978.147 785.459 972.725 785.909 967.907 788.086L652.666 930.522C646.871 933.141 642.419 938.041 640.366 944.06L556.18 1190.98Z" stroke="url(#paint28_linear_33_1463)" stroke-width="4"/>
<path opacity="0.434783" d="M534.739 1169.05C531.308 1177.68 533.4 1187.52 540.044 1194.01L725.078 1374.65C729.637 1379.1 735.839 1381.46 742.203 1381.17L1083.46 1365.45C1088.77 1365.21 1093.83 1363.13 1097.78 1359.58L1325.86 1154.61C1331.97 1149.11 1334.69 1140.76 1332.98 1132.72L1284.05 902.525C1282.34 894.48 1276.46 887.96 1268.64 885.426L976.91 790.937C971.857 789.301 966.392 789.463 961.445 791.399L643.295 915.844C637.362 918.165 632.657 922.843 630.302 928.764L534.739 1169.05Z" stroke="url(#paint29_linear_33_1463)" stroke-width="4"/>
<path opacity="0.449275" d="M514.507 1147.43C510.667 1155.84 512.233 1165.73 518.483 1172.54L691.8 1361.37C696.117 1366.07 702.195 1368.77 708.579 1368.82L1045.89 1371.24C1051.22 1371.28 1056.41 1369.46 1060.55 1366.1L1295.89 1174.99C1302.26 1169.81 1305.39 1161.64 1304.11 1153.53L1267.55 922.732C1266.27 914.627 1260.77 907.82 1253.11 904.869L970.231 795.833C965.251 793.914 959.758 793.786 954.694 795.471L634.645 902.015C628.587 904.031 623.641 908.475 620.988 914.282L514.507 1147.43Z" stroke="url(#paint30_linear_33_1463)" stroke-width="4"/>
<path opacity="0.463768" d="M495.454 1126.18C491.219 1134.35 492.26 1144.26 498.101 1151.37L659.356 1347.66C663.417 1352.6 669.353 1355.63 675.739 1356.02L1008.14 1376.13C1013.5 1376.46 1018.79 1374.9 1023.12 1371.73L1264.91 1194.67C1271.51 1189.84 1275.05 1181.85 1274.19 1173.71L1249.94 942.963C1249.08 934.822 1243.96 927.749 1236.5 924.391L963.184 801.474C958.293 799.275 952.787 798.853 947.618 800.283L626.661 889.068C620.495 890.774 615.318 894.97 612.374 900.65L495.454 1126.18Z" stroke="url(#paint31_linear_33_1463)" stroke-width="4"/>
<path opacity="0.478261" d="M477.545 1105.36C472.93 1113.27 473.448 1123.17 478.865 1130.56L627.76 1333.57C631.552 1338.74 637.328 1342.09 643.697 1342.82L970.279 1380.11C975.633 1380.72 981.032 1379.43 985.534 1376.47L1232.95 1213.62C1239.77 1209.13 1243.7 1201.36 1243.27 1193.21L1231.22 963.155C1230.79 955 1226.07 947.683 1218.81 943.93L955.733 807.834C950.946 805.358 945.442 804.641 940.181 805.809L619.287 877.035C613.029 878.424 607.634 882.362 604.404 887.899L477.545 1105.36Z" stroke="url(#paint32_linear_33_1463)" stroke-width="4"/>
<path opacity="0.492754" d="M460.742 1085.04C455.762 1092.68 455.762 1102.53 460.742 1110.17L597.022 1319.15C600.531 1324.53 606.13 1328.2 612.464 1329.27L932.348 1383.18C937.688 1384.08 943.175 1383.07 947.842 1380.32L1200.07 1231.78C1207.09 1227.64 1211.4 1220.11 1211.4 1211.96L1211.4 983.247C1211.4 975.101 1207.09 967.563 1200.07 963.429L947.842 814.886C943.175 812.138 937.688 811.124 932.348 812.025L612.464 865.942C606.13 867.01 600.531 870.678 597.022 876.059L460.742 1085.04Z" stroke="url(#paint33_linear_33_1463)" stroke-width="4"/>
<path opacity="0.507246" d="M445.004 1065.27C439.677 1072.61 439.164 1082.4 443.694 1090.26L567.149 1304.45C570.363 1310.03 575.768 1314 582.05 1315.41L894.401 1385.35C899.713 1386.54 905.274 1385.81 910.096 1383.28L1166.33 1249.1C1173.53 1245.33 1178.2 1238.04 1178.63 1229.93L1190.51 1003.18C1190.94 995.066 1187.05 987.33 1180.29 982.828L939.48 822.6C934.949 819.585 929.494 818.274 924.087 818.902L606.136 855.813C599.742 856.555 593.951 859.943 590.171 865.154L445.004 1065.27Z" stroke="url(#paint34_linear_33_1463)" stroke-width="4"/>
<path opacity="0.521739" d="M430.288 1046.1C424.631 1053.13 423.613 1062.83 427.683 1070.88L538.146 1289.52C541.055 1295.28 546.249 1299.55 552.46 1301.29L856.488 1386.62C861.755 1388.1 867.378 1387.65 872.345 1385.36L1131.78 1265.55C1139.14 1262.15 1144.17 1255.13 1145.01 1247.07L1168.58 1022.9C1169.42 1014.84 1165.97 1006.93 1159.48 1002.07L930.616 830.946C926.234 827.669 920.828 826.062 915.368 826.413L600.242 846.666C593.805 847.08 587.837 850.179 583.794 855.206L430.288 1046.1Z" stroke="url(#paint35_linear_33_1463)" stroke-width="4"/>
<path opacity="0.536232" d="M416.547 1027.58C410.578 1034.29 409.062 1043.87 412.665 1052.09L510.015 1274.41C512.608 1280.33 517.574 1284.89 523.696 1286.96L818.657 1387C823.866 1388.76 829.535 1388.61 834.637 1386.55L1096.48 1281.09C1103.98 1278.07 1109.34 1271.33 1110.61 1263.35L1145.61 1042.34C1146.88 1034.36 1143.86 1026.3 1137.66 1021.11L921.22 839.891C917.003 836.36 911.66 834.457 906.16 834.528L594.722 838.52C588.258 838.603 582.127 841.402 577.831 846.233L416.547 1027.58Z" stroke="url(#paint36_linear_33_1463)" stroke-width="4"/>
<path opacity="0.550725" d="M403.732 1009.77C397.47 1016.15 395.467 1025.57 398.595 1033.94L482.755 1259.16C485.023 1265.23 489.745 1270.06 495.761 1272.47L780.959 1386.5C786.094 1388.55 791.796 1388.69 797.022 1386.88L1060.5 1295.68C1068.12 1293.04 1073.8 1286.61 1075.47 1278.72L1121.65 1061.46C1123.33 1053.58 1120.76 1045.39 1114.87 1039.88L911.266 849.402C907.228 845.624 901.964 843.427 896.438 843.214L589.516 831.386C583.042 831.136 576.763 833.629 572.223 838.251L403.732 1009.77Z" stroke="url(#paint37_linear_33_1463)" stroke-width="4"/>
<path opacity="0.565217" d="M391.792 992.707C385.256 998.731 382.778 1007.98 385.425 1016.47L456.363 1243.84C458.297 1250.03 462.761 1255.13 468.653 1257.86L743.442 1385.13C748.487 1387.47 754.208 1387.9 759.545 1386.35L1023.89 1309.29C1031.6 1307.04 1037.59 1300.93 1039.67 1293.16L1096.73 1080.2C1098.81 1072.44 1096.69 1064.15 1091.13 1058.35L900.728 859.444C896.883 855.427 891.714 852.94 886.177 852.441L584.563 825.273C578.096 824.691 571.684 826.869 566.91 831.27L391.792 992.707Z" stroke="url(#paint38_linear_33_1463)" stroke-width="4"/>
<path opacity="0.57971" d="M380.672 976.431C373.884 982.094 370.942 991.148 373.105 999.72L430.833 1228.47C432.425 1234.78 436.616 1240.12 442.366 1243.17L706.151 1382.92C711.091 1385.54 716.816 1386.27 722.254 1384.97L986.713 1321.9C994.509 1320.04 1000.78 1314.26 1003.25 1306.64L1070.87 1098.52C1073.35 1090.9 1071.68 1082.53 1066.47 1076.45L889.584 869.981C885.947 865.735 880.888 862.96 875.352 862.173L579.801 820.188C573.358 819.272 566.829 821.129 561.832 825.298L380.672 976.431Z" stroke="url(#paint39_linear_33_1463)" stroke-width="4"/>
<path opacity="0.594203" d="M370.32 960.981C363.298 966.272 359.908 975.104 361.585 983.735L406.155 1213.12C407.399 1219.52 411.303 1225.09 416.895 1228.45L669.133 1379.88C673.953 1382.77 679.667 1383.8 685.194 1382.77L949.039 1333.49C956.894 1332.03 963.425 1326.59 966.289 1319.13L1044.12 1116.36C1046.99 1108.9 1045.77 1100.49 1040.92 1094.14L877.813 880.977C874.397 876.512 869.463 873.453 863.944 872.378L575.17 816.131C568.768 814.884 562.138 816.413 556.929 820.339L370.32 960.981Z" stroke="url(#paint40_linear_33_1463)" stroke-width="4"/>
<path opacity="0.608696" d="M360.676 946.39C353.442 951.301 349.619 959.889 350.809 968.55L382.319 1197.82C383.209 1204.3 386.813 1210.09 392.229 1213.75L632.431 1376.03C637.117 1379.2 642.804 1380.52 648.408 1379.76L910.931 1344.04C918.825 1342.97 925.601 1337.88 928.841 1330.6L1016.51 1133.69C1019.75 1126.41 1019 1117.98 1014.51 1111.39L865.397 892.395C862.214 887.721 857.421 884.383 851.933 883.019L570.609 813.101C564.265 811.525 557.55 812.722 552.142 816.394L360.676 946.39Z" stroke="url(#paint41_linear_33_1463)" stroke-width="4"/>
<path opacity="0.623188" d="M351.683 932.69C344.259 937.212 340.019 945.533 340.724 954.197L359.311 1182.63C359.842 1189.16 363.133 1195.15 368.358 1199.1L596.088 1371.4C600.624 1374.83 606.271 1376.46 611.939 1375.97L872.453 1353.53C880.366 1352.85 887.367 1348.13 890.973 1341.06L988.088 1150.46C991.693 1143.38 991.393 1134.95 987.293 1128.14L852.319 904.196C849.382 899.324 844.745 895.713 839.302 894.061L566.058 811.094C559.789 809.191 553.006 810.051 547.411 813.46L351.683 932.69Z" stroke="url(#paint42_linear_33_1463)" stroke-width="4"/>
<path opacity="0.637681" d="M343.282 919.906C335.689 924.032 331.051 932.067 331.273 940.706L337.115 1167.57C337.284 1174.14 340.251 1180.32 345.268 1184.55L560.146 1366C564.518 1369.69 570.109 1371.62 575.828 1371.41L833.672 1361.96C841.584 1361.67 848.79 1357.33 852.748 1350.47L958.888 1166.63C962.846 1159.78 963 1151.37 959.296 1144.37L838.564 916.342C835.887 911.284 831.42 907.407 826.037 905.467L561.459 810.101C555.281 807.874 548.446 808.394 542.677 811.53L343.282 919.906Z" stroke="url(#paint43_linear_33_1463)" stroke-width="4"/>
<path opacity="0.652174" d="M335.412 908.061C327.672 911.786 322.654 919.514 322.398 928.1L315.712 1152.71C315.516 1159.29 318.149 1165.64 322.943 1170.14L524.643 1359.88C528.837 1363.83 534.357 1366.05 540.114 1366.13L794.653 1369.31C802.543 1369.41 809.933 1365.46 814.23 1358.84L928.958 1182.17C933.255 1175.56 933.86 1167.2 930.561 1160.03L824.122 928.793C821.714 923.563 817.433 919.426 812.123 917.2L556.752 810.11C550.682 807.564 543.813 807.741 537.882 810.596L335.412 908.061Z" stroke="url(#paint44_linear_33_1463)" stroke-width="4"/>
<path opacity="0.666667" d="M328.011 897.173C320.147 900.494 314.768 907.897 314.04 916.403L295.082 1138.07C294.52 1144.64 296.808 1151.14 301.364 1155.91L489.617 1353.06C493.618 1357.25 499.053 1359.77 504.835 1360.13L755.461 1375.59C763.31 1376.07 770.862 1372.51 775.485 1366.15L898.343 1197.05C902.965 1190.69 904.017 1182.41 901.131 1175.09L808.981 941.51C806.854 936.121 802.773 931.733 797.552 929.222L551.881 811.105C545.935 808.246 539.047 808.079 532.969 810.645L328.011 897.173Z" stroke="url(#paint45_linear_33_1463)" stroke-width="4"/>
<path opacity="0.681159" d="M321.019 887.26C313.052 890.171 307.334 897.232 306.142 905.631L275.204 1123.69C274.275 1130.24 276.209 1136.87 280.513 1141.89L455.103 1345.57C458.898 1350 464.232 1352.82 470.027 1353.46L716.162 1380.8C723.95 1381.66 731.644 1378.5 736.575 1372.41L867.091 1211.24C872.023 1205.15 873.514 1196.97 871.049 1189.53L793.134 954.454C791.3 948.92 787.432 944.289 782.314 941.498L546.79 813.069C540.984 809.903 534.096 809.389 527.884 811.659L321.019 887.26Z" stroke="url(#paint46_linear_33_1463)" stroke-width="4"/>
<path opacity="0.695652" d="M314.374 878.33C306.325 880.831 300.29 887.535 298.643 895.8L256.051 1109.62C254.756 1116.12 256.329 1122.87 260.367 1128.12L421.136 1337.44C424.711 1342.1 429.929 1345.21 435.723 1346.14L676.819 1384.94C684.528 1386.18 692.34 1383.42 697.565 1377.62L835.251 1224.7C840.475 1218.9 842.399 1210.84 840.36 1203.31L776.577 967.585C775.044 961.92 771.404 957.056 766.402 953.987L541.424 815.979C535.773 812.513 528.901 811.653 522.571 813.621L314.374 878.33Z" stroke="url(#paint47_linear_33_1463)" stroke-width="4"/>
<path opacity="0.710145" d="M308.013 870.392C299.906 872.483 293.575 878.814 291.484 886.921L237.6 1095.89C235.94 1102.32 237.145 1109.16 240.904 1114.64L387.747 1328.72C391.088 1333.59 396.176 1336.99 401.956 1338.21L637.496 1388.02C645.107 1389.63 653.016 1387.28 658.517 1381.78L802.871 1237.43C808.372 1231.92 810.719 1224.01 809.11 1216.4L759.307 980.863C758.084 975.084 754.685 969.996 749.814 966.654L535.731 819.812C530.251 816.053 523.413 814.848 516.978 816.508L308.013 870.392Z" stroke="url(#paint48_linear_33_1463)" stroke-width="4"/>
<path opacity="0.724638" d="M301.874 863.45C293.73 865.13 287.127 871.076 284.605 878.999L219.82 1082.52C217.799 1088.87 218.63 1095.78 222.097 1101.47L354.963 1319.44C358.059 1324.52 363.001 1328.2 368.753 1329.71L598.254 1390.05C605.749 1392.02 613.733 1390.09 619.493 1384.9L770 1249.38C775.76 1244.2 778.52 1236.46 777.344 1228.8L741.32 994.249C740.417 988.371 737.272 983.07 732.545 979.461L529.659 824.539C524.365 820.497 517.577 818.948 511.053 820.294L301.874 863.45Z" stroke="url(#paint49_linear_33_1463)" stroke-width="4"/>
<path opacity="0.73913" d="M295.897 857.504C287.738 858.775 280.887 864.323 277.947 872.04L202.684 1069.56C200.306 1075.8 200.758 1082.77 203.922 1088.65L322.813 1309.63C325.651 1314.9 330.434 1318.86 336.145 1320.67L559.155 1391.06C566.517 1393.39 574.554 1391.86 580.553 1387L736.692 1260.56C742.691 1255.71 745.853 1248.16 745.111 1240.48L722.62 1007.7C722.044 1001.74 719.165 996.242 714.596 992.37L523.16 830.132C518.066 825.814 511.346 823.924 504.748 824.952L295.897 857.504Z" stroke="url(#paint50_linear_33_1463)" stroke-width="4"/>
<path opacity="0.753623" d="M290.021 852.549C281.868 853.415 274.793 858.556 271.45 866.042L186.16 1057.03C183.431 1063.14 183.5 1070.14 186.349 1076.2L291.322 1299.34C293.889 1304.8 298.497 1309.03 304.154 1311.12L520.259 1391.06C527.47 1393.73 535.538 1392.62 541.758 1388.1L702.995 1270.95C709.215 1266.43 712.766 1259.1 712.457 1251.42L703.209 1021.19C702.966 1015.16 700.367 1009.47 695.97 1005.34L516.188 836.556C511.307 831.973 504.672 829.745 498.015 830.452L290.021 852.549Z" stroke="url(#paint51_linear_33_1463)" stroke-width="4"/>
<path opacity="0.768116" d="M284.186 848.579C276.06 849.044 268.786 853.768 265.056 861.002L170.217 1044.96C167.142 1050.92 166.825 1057.93 169.351 1064.15L260.51 1288.6C262.796 1294.23 267.216 1298.73 272.805 1301.11L481.623 1390.07C488.667 1393.08 496.743 1392.37 503.164 1388.2L668.961 1280.53C675.383 1276.36 679.308 1269.27 679.432 1261.62L683.092 1034.67C683.19 1028.59 680.881 1022.73 676.669 1018.35L508.697 843.776C504.044 838.94 497.51 836.377 490.81 836.76L284.186 848.579Z" stroke="url(#paint52_linear_33_1463)" stroke-width="4"/>
<path opacity="0.782609" d="M278.332 845.584C270.255 845.652 262.806 849.953 258.708 856.914L154.821 1033.37C151.408 1039.16 150.704 1046.17 152.896 1052.53L230.399 1277.47C232.392 1283.26 236.61 1288.01 242.118 1290.68L443.302 1388.13C450.164 1391.45 458.226 1391.16 464.829 1387.35L634.642 1289.31C641.245 1285.49 645.529 1278.66 646.082 1271.05L662.278 1048.1C662.721 1041.99 660.714 1035.97 656.699 1031.35L500.645 851.755C496.232 846.676 489.816 843.784 483.088 843.842L278.332 845.584Z" stroke="url(#paint53_linear_33_1463)" stroke-width="4"/>
<path opacity="0.797101" d="M272.404 843.548C264.395 843.227 256.797 847.098 252.349 853.766L139.938 1022.28C136.195 1027.9 135.104 1034.87 136.954 1041.35L201.005 1265.98C202.696 1271.91 206.697 1276.91 212.11 1279.86L405.351 1385.26C412.014 1388.89 420.042 1389 426.805 1385.56L600.088 1297.26C606.851 1293.82 611.479 1287.26 612.455 1279.73L640.775 1061.45C641.568 1055.33 639.873 1049.15 636.069 1044.3L491.994 860.452C487.833 855.143 481.551 851.928 474.811 851.658L272.404 843.548Z" stroke="url(#paint54_linear_33_1463)" stroke-width="4"/>
<path opacity="0.811594" d="M266.343 842.454C258.423 841.751 250.701 845.189 245.924 851.545L125.533 1011.73C121.47 1017.13 119.992 1024.06 121.492 1030.65L172.342 1254.17C173.72 1260.23 177.492 1265.47 182.798 1268.71L367.819 1381.48C374.271 1385.42 382.243 1385.93 389.145 1382.86L565.351 1304.41C572.253 1301.33 577.206 1295.06 578.6 1287.64L618.593 1074.68C619.74 1068.57 618.367 1062.26 614.787 1057.18L482.705 869.827C478.808 864.3 472.676 860.768 465.94 860.17L266.343 842.454Z" stroke="url(#paint55_linear_33_1463)" stroke-width="4"/>
<path opacity="0.826087" d="M260.098 842.282C252.285 841.205 244.465 844.207 239.379 850.235L111.57 1001.72C107.198 1006.9 105.335 1013.75 106.479 1020.43L144.424 1242.09C145.481 1248.26 149.009 1253.74 154.195 1257.25L330.759 1376.85C336.985 1381.07 344.88 1381.98 351.9 1379.28L530.48 1310.73C537.501 1308.04 542.76 1302.08 544.565 1294.78L595.748 1087.75C597.252 1081.67 596.21 1075.24 592.865 1069.95L472.745 879.835C469.124 874.103 463.157 870.261 456.441 869.335L260.098 842.282Z" stroke="url(#paint56_linear_33_1463)" stroke-width="4"/>
<path opacity="0.84058" d="M253.613 843.007C245.926 841.567 238.034 844.131 232.662 849.815L98.0127 992.27C93.3431 997.21 91.0982 1003.96 91.8805 1010.72L117.259 1229.78C117.986 1236.05 121.259 1241.75 126.311 1245.54L294.214 1371.4C300.202 1375.89 307.999 1377.18 315.117 1374.87L495.525 1316.25C502.642 1313.94 508.189 1308.31 510.395 1301.16L572.253 1100.64C574.115 1094.61 573.414 1088.08 570.315 1082.58L462.083 890.43C458.746 884.507 452.961 880.363 446.279 879.111L253.613 843.007Z" stroke="url(#paint57_linear_33_1463)" stroke-width="4"/>
<path opacity="0.855072" d="M246.839 844.604C239.296 842.81 231.357 844.938 225.722 850.263L84.8241 983.397C79.8701 988.078 77.2474 994.715 77.6633 1001.52L90.8551 1217.29C91.2435 1223.65 94.2486 1229.56 99.1548 1233.61L258.229 1365.16C263.967 1369.91 271.647 1371.58 278.839 1369.65L460.533 1320.97C467.725 1319.04 473.54 1313.75 476.136 1306.77L548.125 1113.31C550.346 1107.35 549.993 1100.73 547.153 1095.03L450.689 901.566C447.648 895.466 442.058 891.03 435.427 889.453L246.839 844.604Z" stroke="url(#paint58_linear_33_1463)" stroke-width="4"/>
<path opacity="0.869565" d="M239.728 847.042C232.346 844.907 224.386 846.599 218.511 851.552L71.9671 975.11C66.7427 979.515 63.7476 986.015 63.7935 992.849L65.2164 1204.67C65.2595 1211.09 67.9844 1217.2 72.7321 1221.52L222.845 1358.18C228.322 1363.17 235.865 1365.21 243.11 1363.67L425.554 1324.89C432.799 1323.35 438.859 1318.42 441.835 1311.64L523.382 1125.73C525.962 1119.85 525.966 1113.16 523.394 1107.28L438.54 913.194C435.802 906.932 430.422 902.213 423.858 900.313L239.728 847.042Z" stroke="url(#paint59_linear_33_1463)" stroke-width="4"/>
<path opacity="0.884058" d="M232.234 850.29C225.029 847.825 217.072 849.085 210.982 853.656L59.4045 967.419C53.9245 971.532 50.5635 977.874 50.2369 984.718L40.3451 1191.94C40.0363 1198.41 42.4691 1204.71 47.046 1209.3L188.099 1350.51C193.306 1355.72 200.694 1358.13 207.97 1356.98L390.632 1328.04C397.909 1326.89 404.193 1322.32 407.533 1315.76L498.044 1137.86C500.981 1132.09 501.349 1125.35 499.056 1119.29L425.612 925.265C423.186 918.857 418.03 913.864 411.547 911.646L232.234 850.29Z" stroke="url(#paint60_linear_33_1463)" stroke-width="4"/>
<path opacity="0.898551" d="M224.312 854.312C217.3 851.531 209.37 852.364 203.09 856.543L47.0982 960.331C41.3786 964.137 37.6595 970.3 36.9587 977.134L16.2399 1179.17C15.5733 1185.68 17.703 1192.15 22.0969 1196.99L154.027 1342.19C158.953 1347.62 166.168 1350.37 173.454 1349.6L355.813 1330.43C363.099 1329.67 369.584 1325.48 373.275 1319.15L472.132 1149.69C475.425 1144.04 476.161 1137.27 474.158 1131.05L411.885 937.728C409.779 931.189 404.86 925.934 398.474 923.4L224.312 854.312Z" stroke="url(#paint61_linear_33_1463)" stroke-width="4"/>
<path opacity="0.913043" d="M215.922 859.072C209.118 855.988 201.24 856.401 194.795 860.179L35.0118 953.85C29.0694 957.334 25.0012 963.298 23.9258 970.101L-7.10127 1166.4C-8.13071 1172.91 -6.31533 1179.55 -2.11601 1184.64L120.66 1333.27C125.299 1338.89 132.323 1341.98 139.597 1341.6L321.139 1332.08C328.413 1331.7 335.076 1327.9 339.102 1321.83L445.669 1161.17C449.314 1155.68 450.425 1148.88 448.721 1142.51L397.345 950.531C395.564 943.877 390.895 938.372 384.621 935.528L215.922 859.072Z" stroke="url(#paint62_linear_33_1463)" stroke-width="4"/>
<path opacity="0.927536" d="M207.024 864.53C200.442 861.159 192.639 861.159 186.057 864.53L23.1075 947.979C16.9601 951.128 12.5529 956.872 11.1035 963.625L-29.6847 1153.66C-31.0814 1160.17 -29.5906 1166.96 -25.5976 1172.29L88.0271 1323.81C92.3707 1329.6 99.1881 1333.01 106.428 1333.01L286.653 1333.01C293.893 1333.01 300.71 1329.6 305.054 1323.81L418.679 1172.29C422.672 1166.96 424.162 1160.17 422.766 1153.66L381.978 963.625C380.528 956.872 376.121 951.128 369.974 947.979L207.024 864.53Z" stroke="url(#paint63_linear_33_1463)" stroke-width="4"/>
<path opacity="0.942029" d="M197.585 870.646C191.236 867.003 183.533 866.599 176.838 869.559L11.3489 942.718C5.01515 945.518 0.280162 951.023 -1.54142 957.705L-51.518 1141.01C-53.2855 1147.49 -52.1296 1154.42 -48.354 1159.98L56.153 1313.84C60.1956 1319.79 66.7904 1323.51 73.9754 1323.89L252.394 1333.24C259.579 1333.61 266.526 1330.61 271.169 1325.11L391.186 1183.02C395.522 1177.88 397.396 1171.11 396.316 1164.48L365.774 976.955C364.66 970.12 360.527 964.15 354.52 960.703L197.585 870.646Z" stroke="url(#paint64_linear_33_1463)" stroke-width="4"/>
<path opacity="0.956522" d="M187.571 877.376C181.468 873.477 173.885 872.68 167.105 875.225L-0.300257 938.065C-6.80099 940.505 -11.8514 945.752 -14.0423 952.341L-72.6117 1128.48C-74.7529 1134.92 -73.9413 1141.97 -70.3942 1147.76L25.0596 1303.43C28.7962 1309.52 35.1538 1313.53 42.2629 1314.28L218.4 1332.79C225.509 1333.54 232.561 1330.94 237.483 1325.76L363.217 1193.33C367.89 1188.41 370.15 1181.68 369.395 1174.93L348.726 990.469C347.953 983.569 344.104 977.387 338.253 973.648L187.571 877.376Z" stroke="url(#paint65_linear_33_1463)" stroke-width="4"/>
<path opacity="0.971014" d="M176.952 884.676C171.106 880.538 163.665 879.359 156.826 881.489L-11.8759 934.016C-18.5234 936.085 -23.8756 941.055 -26.432 947.531L-92.9787 1116.11C-95.4954 1122.49 -95.0374 1129.65 -91.7294 1135.66L-5.23496 1292.63C-1.80832 1298.85 4.29843 1303.13 11.3113 1304.24L184.706 1331.71C191.719 1332.82 198.851 1330.63 204.032 1325.77L334.8 1203.21C339.801 1198.53 342.451 1191.85 342.027 1185.01L330.832 1004.12C330.402 997.167 326.848 990.787 321.165 986.764L176.952 884.676Z" stroke="url(#paint66_linear_33_1463)" stroke-width="4"/>
<path opacity="0.985507" d="M165.702 892.501C160.122 888.14 152.844 886.593 145.972 888.307L-23.4127 930.564C-30.186 932.254 -35.8253 936.928 -38.7419 943.27L-112.634 1103.95C-115.527 1110.24 -115.431 1117.51 -112.373 1123.72L-34.7154 1281.49C-31.6016 1287.81 -25.7584 1292.36 -18.8618 1293.83L151.346 1330.01C158.243 1331.47 165.431 1329.69 170.848 1325.18L305.961 1212.64C311.283 1208.21 314.324 1201.61 314.24 1194.69L312.091 1017.84C312.007 1010.86 308.756 1004.3 303.256 999.999L165.702 892.501Z" stroke="url(#paint67_linear_33_1463)" stroke-width="4"/>
<path d="M153.797 900.803C148.492 896.237 141.396 894.336 134.518 895.637L-34.9454 927.702C-41.8228 929.003 -47.7334 933.365 -51.0041 939.553L-131.594 1092.04C-134.865 1098.23 -135.139 1105.57 -132.34 1111.98L-63.3708 1270.06C-60.5718 1276.48 -55.0037 1281.27 -48.2427 1283.08L118.351 1327.72C125.112 1329.53 132.33 1328.17 137.962 1324.01L276.731 1221.59C282.363 1217.44 285.796 1210.94 286.057 1203.95L292.506 1031.6C292.768 1024.6 289.83 1017.87 284.525 1013.3L153.797 900.803Z" stroke="url(#paint68_linear_33_1463)" stroke-width="4"/>
<defs>
<linearGradient id="paint0_linear_33_1463" x1="1660.91" y1="1645.24" x2="1477.03" y2="484.222" gradientUnits="userSpaceOnUse">
<stop stop-color="#182D4B"/>
<stop offset="0.5" stop-color="#0F6FF5"/>
<stop offset="1" stop-color="#58F5FF"/>
</linearGradient>
<linearGradient id="paint1_linear_33_1463" x1="1609.15" y1="1644.5" x2="1487.36" y2="485.766" gradientUnits="userSpaceOnUse">
<stop stop-color="#182D4B"/>
<stop offset="0.5" stop-color="#0F6FF5"/>
<stop offset="1" stop-color="#58F5FF"/>
</linearGradient>
<linearGradient id="paint2_linear_33_1463" x1="1557.74" y1="1642.17" x2="1497.31" y2="489.015" gradientUnits="userSpaceOnUse">
<stop stop-color="#182D4B"/>
<stop offset="0.5" stop-color="#0F6FF5"/>
<stop offset="1" stop-color="#58F5FF"/>
</linearGradient>
<linearGradient id="paint3_linear_33_1463" x1="1506.78" y1="1638.29" x2="1506.78" y2="493.93" gradientUnits="userSpaceOnUse">
<stop stop-color="#182D4B"/>
<stop offset="0.5" stop-color="#0F6FF5"/>
<stop offset="1" stop-color="#58F5FF"/>
</linearGradient>
<linearGradient id="paint4_linear_33_1463" x1="1456.34" y1="1632.9" x2="1515.69" y2="500.471" gradientUnits="userSpaceOnUse">
<stop stop-color="#182D4B"/>
<stop offset="0.5" stop-color="#0F6FF5"/>
<stop offset="1" stop-color="#58F5FF"/>
</linearGradient>
<linearGradient id="paint5_linear_33_1463" x1="1406.51" y1="1626.05" x2="1523.95" y2="508.59" gradientUnits="userSpaceOnUse">
<stop stop-color="#182D4B"/>
<stop offset="0.5" stop-color="#0F6FF5"/>
<stop offset="1" stop-color="#58F5FF"/>
</linearGradient>
<linearGradient id="paint6_linear_33_1463" x1="1357.34" y1="1617.77" x2="1531.49" y2="518.237" gradientUnits="userSpaceOnUse">
<stop stop-color="#182D4B"/>
<stop offset="0.5" stop-color="#0F6FF5"/>
<stop offset="1" stop-color="#58F5FF"/>
</linearGradient>
<linearGradient id="paint7_linear_33_1463" x1="1308.93" y1="1608.12" x2="1538.23" y2="529.358" gradientUnits="userSpaceOnUse">
<stop stop-color="#182D4B"/>
<stop offset="0.5" stop-color="#0F6FF5"/>
<stop offset="1" stop-color="#58F5FF"/>
</linearGradient>
<linearGradient id="paint8_linear_33_1463" x1="1261.33" y1="1597.15" x2="1544.08" y2="541.893" gradientUnits="userSpaceOnUse">
<stop stop-color="#182D4B"/>
<stop offset="0.5" stop-color="#0F6FF5"/>
<stop offset="1" stop-color="#58F5FF"/>
</linearGradient>
<linearGradient id="paint9_linear_33_1463" x1="1214.61" y1="1584.93" x2="1549" y2="555.781" gradientUnits="userSpaceOnUse">
<stop stop-color="#182D4B"/>
<stop offset="0.5" stop-color="#0F6FF5"/>
<stop offset="1" stop-color="#58F5FF"/>
</linearGradient>
<linearGradient id="paint10_linear_33_1463" x1="1168.82" y1="1571.51" x2="1552.9" y2="570.957" gradientUnits="userSpaceOnUse">
<stop stop-color="#182D4B"/>
<stop offset="0.5" stop-color="#0F6FF5"/>
<stop offset="1" stop-color="#58F5FF"/>
</linearGradient>
<linearGradient id="paint11_linear_33_1463" x1="1124.04" y1="1556.95" x2="1555.73" y2="587.351" gradientUnits="userSpaceOnUse">
<stop stop-color="#182D4B"/>
<stop offset="0.5" stop-color="#0F6FF5"/>
<stop offset="1" stop-color="#58F5FF"/>
</linearGradient>
<linearGradient id="paint12_linear_33_1463" x1="1080.3" y1="1541.33" x2="1557.44" y2="604.894" gradientUnits="userSpaceOnUse">
<stop stop-color="#182D4B"/>
<stop offset="0.5" stop-color="#0F6FF5"/>
<stop offset="1" stop-color="#58F5FF"/>
</linearGradient>
<linearGradient id="paint13_linear_33_1463" x1="1037.66" y1="1524.71" x2="1557.96" y2="623.511" gradientUnits="userSpaceOnUse">
<stop stop-color="#182D4B"/>
<stop offset="0.5" stop-color="#0F6FF5"/>
<stop offset="1" stop-color="#58F5FF"/>
</linearGradient>
<linearGradient id="paint14_linear_33_1463" x1="996.158" y1="1507.16" x2="1557.27" y2="643.127" gradientUnits="userSpaceOnUse">
<stop stop-color="#182D4B"/>
<stop offset="0.5" stop-color="#0F6FF5"/>
<stop offset="1" stop-color="#58F5FF"/>
</linearGradient>
<linearGradient id="paint15_linear_33_1463" x1="955.837" y1="1488.75" x2="1555.3" y2="663.663" gradientUnits="userSpaceOnUse">
<stop stop-color="#182D4B"/>
<stop offset="0.5" stop-color="#0F6FF5"/>
<stop offset="1" stop-color="#58F5FF"/>
</linearGradient>
<linearGradient id="paint16_linear_33_1463" x1="916.732" y1="1469.56" x2="1552.02" y2="685.04" gradientUnits="userSpaceOnUse">
<stop stop-color="#182D4B"/>
<stop offset="0.5" stop-color="#0F6FF5"/>
<stop offset="1" stop-color="#58F5FF"/>
</linearGradient>
<linearGradient id="paint17_linear_33_1463" x1="878.873" y1="1449.66" x2="1547.41" y2="707.177" gradientUnits="userSpaceOnUse">
<stop stop-color="#182D4B"/>
<stop offset="0.5" stop-color="#0F6FF5"/>
<stop offset="1" stop-color="#58F5FF"/>
</linearGradient>
<linearGradient id="paint18_linear_33_1463" x1="842.285" y1="1429.13" x2="1541.43" y2="729.992" gradientUnits="userSpaceOnUse">
<stop stop-color="#182D4B"/>
<stop offset="0.5" stop-color="#0F6FF5"/>
<stop offset="1" stop-color="#58F5FF"/>
</linearGradient>
<linearGradient id="paint19_linear_33_1463" x1="806.991" y1="1408.05" x2="1534.06" y2="753.401" gradientUnits="userSpaceOnUse">
<stop stop-color="#182D4B"/>
<stop offset="0.5" stop-color="#0F6FF5"/>
<stop offset="1" stop-color="#58F5FF"/>
</linearGradient>
<linearGradient id="paint20_linear_33_1463" x1="773.009" y1="1386.5" x2="1525.28" y2="777.323" gradientUnits="userSpaceOnUse">
<stop stop-color="#182D4B"/>
<stop offset="0.5" stop-color="#0F6FF5"/>
<stop offset="1" stop-color="#58F5FF"/>
</linearGradient>
<linearGradient id="paint21_linear_33_1463" x1="740.348" y1="1364.54" x2="1515.07" y2="801.672" gradientUnits="userSpaceOnUse">
<stop stop-color="#182D4B"/>
<stop offset="0.5" stop-color="#0F6FF5"/>
<stop offset="1" stop-color="#58F5FF"/>
</linearGradient>
<linearGradient id="paint22_linear_33_1463" x1="709.019" y1="1342.27" x2="1503.44" y2="826.365" gradientUnits="userSpaceOnUse">
<stop stop-color="#182D4B"/>
<stop offset="0.5" stop-color="#0F6FF5"/>
<stop offset="1" stop-color="#58F5FF"/>
</linearGradient>
<linearGradient id="paint23_linear_33_1463" x1="679.024" y1="1319.75" x2="1490.37" y2="851.319" gradientUnits="userSpaceOnUse">
<stop stop-color="#182D4B"/>
<stop offset="0.5" stop-color="#0F6FF5"/>
<stop offset="1" stop-color="#58F5FF"/>
</linearGradient>
<linearGradient id="paint24_linear_33_1463" x1="650.363" y1="1297.07" x2="1475.87" y2="876.451" gradientUnits="userSpaceOnUse">
<stop stop-color="#182D4B"/>
<stop offset="0.5" stop-color="#0F6FF5"/>
<stop offset="1" stop-color="#58F5FF"/>
</linearGradient>
<linearGradient id="paint25_linear_33_1463" x1="623.03" y1="1274.29" x2="1459.94" y2="901.679" gradientUnits="userSpaceOnUse">
<stop stop-color="#182D4B"/>
<stop offset="0.5" stop-color="#0F6FF5"/>
<stop offset="1" stop-color="#58F5FF"/>
</linearGradient>
<linearGradient id="paint26_linear_33_1463" x1="597.015" y1="1251.51" x2="1442.59" y2="926.921" gradientUnits="userSpaceOnUse">
<stop stop-color="#182D4B"/>
<stop offset="0.5" stop-color="#0F6FF5"/>
<stop offset="1" stop-color="#58F5FF"/>
</linearGradient>
<linearGradient id="paint27_linear_33_1463" x1="572.304" y1="1228.78" x2="1423.84" y2="952.1" gradientUnits="userSpaceOnUse">
<stop stop-color="#182D4B"/>
<stop offset="0.5" stop-color="#0F6FF5"/>
<stop offset="1" stop-color="#58F5FF"/>
</linearGradient>
<linearGradient id="paint28_linear_33_1463" x1="548.881" y1="1206.19" x2="1403.71" y2="977.137" gradientUnits="userSpaceOnUse">
<stop stop-color="#182D4B"/>
<stop offset="0.5" stop-color="#0F6FF5"/>
<stop offset="1" stop-color="#58F5FF"/>
</linearGradient>
<linearGradient id="paint29_linear_33_1463" x1="526.722" y1="1183.8" x2="1382.22" y2="1001.95" gradientUnits="userSpaceOnUse">
<stop stop-color="#182D4B"/>
<stop offset="0.5" stop-color="#0F6FF5"/>
<stop offset="1" stop-color="#58F5FF"/>
</linearGradient>
<linearGradient id="paint30_linear_33_1463" x1="505.801" y1="1161.68" x2="1359.4" y2="1026.48" gradientUnits="userSpaceOnUse">
<stop stop-color="#182D4B"/>
<stop offset="0.5" stop-color="#0F6FF5"/>
<stop offset="1" stop-color="#58F5FF"/>
</linearGradient>
<linearGradient id="paint31_linear_33_1463" x1="486.09" y1="1139.9" x2="1335.27" y2="1050.64" gradientUnits="userSpaceOnUse">
<stop stop-color="#182D4B"/>
<stop offset="0.5" stop-color="#0F6FF5"/>
<stop offset="1" stop-color="#58F5FF"/>
</linearGradient>
<linearGradient id="paint32_linear_33_1463" x1="467.556" y1="1118.52" x2="1309.89" y2="1074.37" gradientUnits="userSpaceOnUse">
<stop stop-color="#182D4B"/>
<stop offset="0.5" stop-color="#0F6FF5"/>
<stop offset="1" stop-color="#58F5FF"/>
</linearGradient>
<linearGradient id="paint33_linear_33_1463" x1="450.161" y1="1097.6" x2="1283.27" y2="1097.6" gradientUnits="userSpaceOnUse">
<stop stop-color="#182D4B"/>
<stop offset="0.5" stop-color="#0F6FF5"/>
<stop offset="1" stop-color="#58F5FF"/>
</linearGradient>
<linearGradient id="paint34_linear_33_1463" x1="433.867" y1="1077.21" x2="1255.48" y2="1120.27" gradientUnits="userSpaceOnUse">
<stop stop-color="#182D4B"/>
<stop offset="0.5" stop-color="#0F6FF5"/>
<stop offset="1" stop-color="#58F5FF"/>
</linearGradient>
<linearGradient id="paint35_linear_33_1463" x1="418.631" y1="1057.4" x2="1226.54" y2="1142.32" gradientUnits="userSpaceOnUse">
<stop stop-color="#182D4B"/>
<stop offset="0.5" stop-color="#0F6FF5"/>
<stop offset="1" stop-color="#58F5FF"/>
</linearGradient>
<linearGradient id="paint36_linear_33_1463" x1="404.407" y1="1038.22" x2="1196.52" y2="1163.68" gradientUnits="userSpaceOnUse">
<stop stop-color="#182D4B"/>
<stop offset="0.5" stop-color="#0F6FF5"/>
<stop offset="1" stop-color="#58F5FF"/>
</linearGradient>
<linearGradient id="paint37_linear_33_1463" x1="391.148" y1="1019.73" x2="1165.46" y2="1184.31" gradientUnits="userSpaceOnUse">
<stop stop-color="#182D4B"/>
<stop offset="0.5" stop-color="#0F6FF5"/>
<stop offset="1" stop-color="#58F5FF"/>
</linearGradient>
<linearGradient id="paint38_linear_33_1463" x1="378.803" y1="1001.96" x2="1133.42" y2="1204.16" gradientUnits="userSpaceOnUse">
<stop stop-color="#182D4B"/>
<stop offset="0.5" stop-color="#0F6FF5"/>
<stop offset="1" stop-color="#58F5FF"/>
</linearGradient>
<linearGradient id="paint39_linear_33_1463" x1="367.32" y1="984.966" x2="1100.45" y2="1223.18" gradientUnits="userSpaceOnUse">
<stop stop-color="#182D4B"/>
<stop offset="0.5" stop-color="#0F6FF5"/>
<stop offset="1" stop-color="#58F5FF"/>
</linearGradient>
<linearGradient id="paint40_linear_33_1463" x1="356.642" y1="968.784" x2="1066.62" y2="1241.32" gradientUnits="userSpaceOnUse">
<stop stop-color="#182D4B"/>
<stop offset="0.5" stop-color="#0F6FF5"/>
<stop offset="1" stop-color="#58F5FF"/>
</linearGradient>
<linearGradient id="paint41_linear_33_1463" x1="346.716" y1="953.451" x2="1031.98" y2="1258.55" gradientUnits="userSpaceOnUse">
<stop stop-color="#182D4B"/>
<stop offset="0.5" stop-color="#0F6FF5"/>
<stop offset="1" stop-color="#58F5FF"/>
</linearGradient>
<linearGradient id="paint42_linear_33_1463" x1="337.481" y1="938.999" x2="996.592" y2="1274.83" gradientUnits="userSpaceOnUse">
<stop stop-color="#182D4B"/>
<stop offset="0.5" stop-color="#0F6FF5"/>
<stop offset="1" stop-color="#58F5FF"/>
</linearGradient>
<linearGradient id="paint43_linear_33_1463" x1="328.88" y1="925.457" x2="960.526" y2="1290.14" gradientUnits="userSpaceOnUse">
<stop stop-color="#182D4B"/>
<stop offset="0.5" stop-color="#0F6FF5"/>
<stop offset="1" stop-color="#58F5FF"/>
</linearGradient>
<linearGradient id="paint44_linear_33_1463" x1="320.851" y1="912.85" x2="923.845" y2="1304.44" gradientUnits="userSpaceOnUse">
<stop stop-color="#182D4B"/>
<stop offset="0.5" stop-color="#0F6FF5"/>
<stop offset="1" stop-color="#58F5FF"/>
</linearGradient>
<linearGradient id="paint45_linear_33_1463" x1="313.333" y1="901.199" x2="886.613" y2="1317.71" gradientUnits="userSpaceOnUse">
<stop stop-color="#182D4B"/>
<stop offset="0.5" stop-color="#0F6FF5"/>
<stop offset="1" stop-color="#58F5FF"/>
</linearGradient>
<linearGradient id="paint46_linear_33_1463" x1="306.266" y1="890.522" x2="848.898" y2="1329.94" gradientUnits="userSpaceOnUse">
<stop stop-color="#182D4B"/>
<stop offset="0.5" stop-color="#0F6FF5"/>
<stop offset="1" stop-color="#58F5FF"/>
</linearGradient>
<linearGradient id="paint47_linear_33_1463" x1="299.586" y1="880.832" x2="810.767" y2="1341.1" gradientUnits="userSpaceOnUse">
<stop stop-color="#182D4B"/>
<stop offset="0.5" stop-color="#0F6FF5"/>
<stop offset="1" stop-color="#58F5FF"/>
</linearGradient>
<linearGradient id="paint48_linear_33_1463" x1="293.231" y1="872.139" x2="772.287" y2="1351.19" gradientUnits="userSpaceOnUse">
<stop stop-color="#182D4B"/>
<stop offset="0.5" stop-color="#0F6FF5"/>
<stop offset="1" stop-color="#58F5FF"/>
</linearGradient>
<linearGradient id="paint49_linear_33_1463" x1="287.138" y1="864.448" x2="733.523" y2="1360.21" gradientUnits="userSpaceOnUse">
<stop stop-color="#182D4B"/>
<stop offset="0.5" stop-color="#0F6FF5"/>
<stop offset="1" stop-color="#58F5FF"/>
</linearGradient>
<linearGradient id="paint50_linear_33_1463" x1="281.246" y1="857.763" x2="694.545" y2="1368.14" gradientUnits="userSpaceOnUse">
<stop stop-color="#182D4B"/>
<stop offset="0.5" stop-color="#0F6FF5"/>
<stop offset="1" stop-color="#58F5FF"/>
</linearGradient>
<linearGradient id="paint51_linear_33_1463" x1="275.494" y1="852.081" x2="655.416" y2="1375" gradientUnits="userSpaceOnUse">
<stop stop-color="#182D4B"/>
<stop offset="0.5" stop-color="#0F6FF5"/>
<stop offset="1" stop-color="#58F5FF"/>
</linearGradient>
<linearGradient id="paint52_linear_33_1463" x1="269.82" y1="847.398" x2="616.203" y2="1380.78" gradientUnits="userSpaceOnUse">
<stop stop-color="#182D4B"/>
<stop offset="0.5" stop-color="#0F6FF5"/>
<stop offset="1" stop-color="#58F5FF"/>
</linearGradient>
<linearGradient id="paint53_linear_33_1463" x1="264.164" y1="843.704" x2="576.971" y2="1385.5" gradientUnits="userSpaceOnUse">
<stop stop-color="#182D4B"/>
<stop offset="0.5" stop-color="#0F6FF5"/>
<stop offset="1" stop-color="#58F5FF"/>
</linearGradient>
<linearGradient id="paint54_linear_33_1463" x1="258.469" y1="840.988" x2="537.781" y2="1389.17" gradientUnits="userSpaceOnUse">
<stop stop-color="#182D4B"/>
<stop offset="0.5" stop-color="#0F6FF5"/>
<stop offset="1" stop-color="#58F5FF"/>
</linearGradient>
<linearGradient id="paint55_linear_33_1463" x1="252.675" y1="839.233" x2="498.695" y2="1391.8" gradientUnits="userSpaceOnUse">
<stop stop-color="#182D4B"/>
<stop offset="0.5" stop-color="#0F6FF5"/>
<stop offset="1" stop-color="#58F5FF"/>
</linearGradient>
<linearGradient id="paint56_linear_33_1463" x1="246.73" y1="838.421" x2="459.775" y2="1393.42" gradientUnits="userSpaceOnUse">
<stop stop-color="#182D4B"/>
<stop offset="0.5" stop-color="#0F6FF5"/>
<stop offset="1" stop-color="#58F5FF"/>
</linearGradient>
<linearGradient id="paint57_linear_33_1463" x1="240.577" y1="838.53" x2="421.077" y2="1394.05" gradientUnits="userSpaceOnUse">
<stop stop-color="#182D4B"/>
<stop offset="0.5" stop-color="#0F6FF5"/>
<stop offset="1" stop-color="#58F5FF"/>
</linearGradient>
<linearGradient id="paint58_linear_33_1463" x1="234.164" y1="839.534" x2="382.658" y2="1393.72" gradientUnits="userSpaceOnUse">
<stop stop-color="#182D4B"/>
<stop offset="0.5" stop-color="#0F6FF5"/>
<stop offset="1" stop-color="#58F5FF"/>
</linearGradient>
<linearGradient id="paint59_linear_33_1463" x1="227.442" y1="841.406" x2="344.572" y2="1392.46" gradientUnits="userSpaceOnUse">
<stop stop-color="#182D4B"/>
<stop offset="0.5" stop-color="#0F6FF5"/>
<stop offset="1" stop-color="#58F5FF"/>
</linearGradient>
<linearGradient id="paint60_linear_33_1463" x1="220.363" y1="844.114" x2="306.869" y2="1390.29" gradientUnits="userSpaceOnUse">
<stop stop-color="#182D4B"/>
<stop offset="0.5" stop-color="#0F6FF5"/>
<stop offset="1" stop-color="#58F5FF"/>
</linearGradient>
<linearGradient id="paint61_linear_33_1463" x1="212.881" y1="847.626" x2="269.599" y2="1387.27" gradientUnits="userSpaceOnUse">
<stop stop-color="#182D4B"/>
<stop offset="0.5" stop-color="#0F6FF5"/>
<stop offset="1" stop-color="#58F5FF"/>
</linearGradient>
<linearGradient id="paint62_linear_33_1463" x1="204.954" y1="851.905" x2="232.809" y2="1383.41" gradientUnits="userSpaceOnUse">
<stop stop-color="#182D4B"/>
<stop offset="0.5" stop-color="#0F6FF5"/>
<stop offset="1" stop-color="#58F5FF"/>
</linearGradient>
<linearGradient id="paint63_linear_33_1463" x1="196.541" y1="856.914" x2="196.541" y2="1378.78" gradientUnits="userSpaceOnUse">
<stop stop-color="#182D4B"/>
<stop offset="0.5" stop-color="#0F6FF5"/>
<stop offset="1" stop-color="#58F5FF"/>
</linearGradient>
<linearGradient id="paint64_linear_33_1463" x1="187.604" y1="862.612" x2="160.835" y2="1373.4" gradientUnits="userSpaceOnUse">
<stop stop-color="#182D4B"/>
<stop offset="0.5" stop-color="#0F6FF5"/>
<stop offset="1" stop-color="#58F5FF"/>
</linearGradient>
<linearGradient id="paint65_linear_33_1463" x1="178.11" y1="868.958" x2="125.729" y2="1367.33" gradientUnits="userSpaceOnUse">
<stop stop-color="#182D4B"/>
<stop offset="0.5" stop-color="#0F6FF5"/>
<stop offset="1" stop-color="#58F5FF"/>
</linearGradient>
<linearGradient id="paint66_linear_33_1463" x1="168.025" y1="875.907" x2="91.2571" y2="1360.6" gradientUnits="userSpaceOnUse">
<stop stop-color="#182D4B"/>
<stop offset="0.5" stop-color="#0F6FF5"/>
<stop offset="1" stop-color="#58F5FF"/>
</linearGradient>
<linearGradient id="paint67_linear_33_1463" x1="157.323" y1="883.415" x2="57.4499" y2="1353.28" gradientUnits="userSpaceOnUse">
<stop stop-color="#182D4B"/>
<stop offset="0.5" stop-color="#0F6FF5"/>
<stop offset="1" stop-color="#58F5FF"/>
</linearGradient>
<linearGradient id="paint68_linear_33_1463" x1="145.976" y1="891.434" x2="24.3344" y2="1345.41" gradientUnits="userSpaceOnUse">
<stop stop-color="#182D4B"/>
<stop offset="0.5" stop-color="#0F6FF5"/>
<stop offset="1" stop-color="#58F5FF"/>
</linearGradient>
</defs>
</svg>
