<svg width="28" height="28" viewBox="0 0 28 28" fill="none" xmlns="http://www.w3.org/2000/svg">
<path d="M12.5417 15.4583V19.8333C12.5417 20.2465 12.6817 20.5931 12.9617 20.8731C13.2417 21.1531 13.5878 21.2926 14 21.2917C14.4122 21.2907 14.7588 21.1507 15.0398 20.8717C15.3208 20.5926 15.4603 20.2465 15.4583 19.8333V15.4583H19.8333C20.2465 15.4583 20.5931 15.3183 20.8731 15.0383C21.1531 14.7583 21.2926 14.4122 21.2917 14C21.2907 13.5878 21.1507 13.2417 20.8717 12.9617C20.5926 12.6817 20.2465 12.5417 19.8333 12.5417H15.4583V8.16667C15.4583 7.75347 15.3183 7.40736 15.0383 7.12833C14.7583 6.84931 14.4122 6.70931 14 6.70833C13.5878 6.70736 13.2417 6.84736 12.9617 7.12833C12.6817 7.40931 12.5417 7.75542 12.5417 8.16667V12.5417H8.16667C7.75347 12.5417 7.40736 12.6817 7.12833 12.9617C6.84931 13.2417 6.70931 13.5878 6.70833 14C6.70736 14.4122 6.84736 14.7588 7.12833 15.0398C7.40931 15.3208 7.75542 15.4603 8.16667 15.4583H12.5417ZM3.79167 27.125C2.98958 27.125 2.30319 26.8397 1.7325 26.269C1.16181 25.6983 0.875972 25.0114 0.875 24.2083V3.79167C0.875 2.98958 1.16083 2.30319 1.7325 1.7325C2.30417 1.16181 2.99056 0.875972 3.79167 0.875H24.2083C25.0104 0.875 25.6973 1.16083 26.269 1.7325C26.8406 2.30417 27.126 2.99056 27.125 3.79167V24.2083C27.125 25.0104 26.8397 25.6973 26.269 26.269C25.6983 26.8406 25.0114 27.126 24.2083 27.125H3.79167ZM3.79167 24.2083H24.2083V3.79167H3.79167V24.2083Z" fill="white"/>
</svg>
